<svg width="76" height="58" viewBox="0 0 76 58" fill="none" xmlns="http://www.w3.org/2000/svg">
<path d="M76 14.6252V43.3748C76 45.3282 74.55 46.981 72.6 47.1313C71.7 47.1814 70.85 46.9309 70.2 46.4301L62.25 40.4698C61.8 40.1192 61.5 39.5682 61.5 39.0173V29.0501C61.5 26.095 61.1 23.2401 60.4 20.5354C60.4 20.5354 60.4 20.5354 60.4 20.4853C60.2 19.734 60.45 18.9827 61.05 18.532L70.2 11.6701C70.85 11.1693 71.7 10.9188 72.6 10.9689C74.55 10.9689 76 12.6719 76 14.6252Z" fill="#EB3E0A"/>
<path d="M28.95 0C12.95 0 0 12.9724 0 29C0 45.0276 12.95 58 28.95 58H36.2V47.1313C36.2 45.1278 34.6 43.525 32.6 43.525H29C21 43.525 14.5 37.0138 14.5 29C14.5 20.9862 21 14.475 29 14.475C37 14.475 43.5 20.9862 43.5 29V54.3938C43.5 56.3972 45.1 58 47.1 58H57.95V29C57.9 12.9724 44.95 0 28.95 0Z" fill="#EB3E0A"/>
</svg>
